HIERARCHY
ROOT joint_Root
{
	OFFSET 0.0 0.0 0.0
	CHANNELS 6 Xposition Yposition Zposition Zrotation Xrotation Yrotation 
	JOINT Hips
	{
		OFFSET -17.1583 93.1646 452.98
		CHANNELS 6 Xposition Yposition Zposition Zrotation Xrotation Yrotation 
		JOINT Spine
		{
			OFFSET 15.7357 0.0 0.0
			CHANNELS 6 Xposition Yposition Zposition Zrotation Xrotation Yrotation 
			JOINT Chest
			{
				OFFSET 8.98455 -0.406207 0.0
				CHANNELS 6 Xposition Yposition Zposition Zrotation Xrotation Yrotation 
				JOINT Neck
				{
					OFFSET 16.3773 0.0 0.0
					CHANNELS 6 Xposition Yposition Zposition Zrotation Xrotation Yrotation 
					JOINT Head
					{
						OFFSET 6.45672 0.0 0.0
						CHANNELS 6 Xposition Yposition Zposition Zrotation Xrotation Yrotation 
						End Site
						{
							OFFSET 0.0 0.0 0.0
						}
					}
				}
				JOINT Shoulder_L
				{
					OFFSET 12.9942 -0.242716 4.98039
					CHANNELS 6 Xposition Yposition Zposition Zrotation Xrotation Yrotation 
					JOINT UpperArm_L
					{
						OFFSET 5.34809 0.0 0.0
						CHANNELS 6 Xposition Yposition Zposition Zrotation Xrotation Yrotation 
						JOINT LowerArm_L
						{
							OFFSET 24.3286 1.87007e-05 0.0
							CHANNELS 6 Xposition Yposition Zposition Zrotation Xrotation Yrotation 
							JOINT Hand_L
							{
								OFFSET 22.2916 0.0 0.0
								CHANNELS 6 Xposition Yposition Zposition Zrotation Xrotation Yrotation 
								End Site
								{
									OFFSET 0.0 0.0 0.0
								}
							}
						}
					}
				}
				JOINT Shoulder_R
				{
					OFFSET 12.9945 -0.242716 -4.98039
					CHANNELS 6 Xposition Yposition Zposition Zrotation Xrotation Yrotation 
					JOINT UpperArm_R
					{
						OFFSET -5.34813 0.0 0.0
						CHANNELS 6 Xposition Yposition Zposition Zrotation Xrotation Yrotation 
						JOINT LowerArm_R
						{
							OFFSET -24.3289 0.000322201 0.0
							CHANNELS 6 Xposition Yposition Zposition Zrotation Xrotation Yrotation 
							JOINT Hand_R
							{
								OFFSET -22.2915 -0.000108084 0.0
								CHANNELS 6 Xposition Yposition Zposition Zrotation Xrotation Yrotation 
								End Site
								{
									OFFSET 0.0 0.0 0.0
								}
							}
						}
					}
				}
			}
		}
		JOINT UpperLeg_L
		{
			OFFSET -2.19248 -6.46944 0.0
			CHANNELS 6 Xposition Yposition Zposition Zrotation Xrotation Yrotation 
			JOINT LowerLeg_L
			{
				OFFSET 39.0811 0.0 -1.23785e-05
				CHANNELS 6 Xposition Yposition Zposition Zrotation Xrotation Yrotation 
				JOINT Foot_L
				{
					OFFSET 40.9854 0.0 -1.26872e-05
					CHANNELS 6 Xposition Yposition Zposition Zrotation Xrotation Yrotation 
					JOINT Toes_L
					{
						OFFSET 11.7543 0.0 0.0
						CHANNELS 6 Xposition Yposition Zposition Zrotation Xrotation Yrotation 
						End Site
						{
							OFFSET 0.0 0.0 0.0
						}
					}
				}
			}
		}
		JOINT UpperLeg_R
		{
			OFFSET -2.19251 6.46944 0.0
			CHANNELS 6 Xposition Yposition Zposition Zrotation Xrotation Yrotation 
			JOINT LowerLeg_R
			{
				OFFSET -39.0811 -0.00228153 -0.0401928
				CHANNELS 6 Xposition Yposition Zposition Zrotation Xrotation Yrotation 
				JOINT Foot_R
				{
					OFFSET -40.9854 0.0 0.0
					CHANNELS 6 Xposition Yposition Zposition Zrotation Xrotation Yrotation 
					JOINT Toes_R
					{
						OFFSET -11.7543 0.0 0.0
						CHANNELS 6 Xposition Yposition Zposition Zrotation Xrotation Yrotation 
						End Site
						{
							OFFSET 0.0 0.0 0.0
						}
					}
				}
			}
		}
	}
}
MOTION
Frames:	8
Frame Time:	0.0333333
0.000000 0.000000 0.000000 0.000000 0.000000 -0.000000 2.334140 93.295900 -1.496050 87.092100 -1.337490 2.643760 15.735700 0.000005 -0.000001 104.410000 84.824500 -104.633000 8.984550 -0.406207 -0.000000 2.266610 2.584820 -0.496791 16.377300 -0.000001 -0.000001 4.085900 0.971103 -0.753272 6.456720 -0.000001 -0.000000 -14.073000 -1.430030 -0.786180 12.994200 -0.242716 4.980390 -92.986500 8.726750 -71.023900 5.348090 -0.000007 -0.000001 -65.695500 26.751300 -8.537560 24.328600 0.000019 0.000005 7.612500 22.567000 -19.201300 22.291600 -0.000001 0.000005 -2.499070 5.044040 6.368150 12.994500 -0.242716 -4.980390 88.062500 5.766220 -71.391600 -5.348130 -0.000001 -0.000004 -69.118400 33.843800 -10.068800 -24.328900 0.000322 -0.000009 -0.205101 -0.718837 -15.848300 -22.291500 -0.000108 -0.000004 1.618280 5.274080 0.787717 -2.192480 -6.469440 -0.000000 -174.670000 -9.742050 -1.102280 39.081100 -0.000007 -0.000012 0.045510 -0.143853 17.555500 40.985400 -0.000006 -0.000013 1.693940 12.332100 -68.543700 11.754300 -0.000000 0.000003 -0.001102 0.184472 -9.093620 -2.192510 6.469440 -0.000001 175.255000 10.130800 -176.965000 -39.081100 -0.002282 -0.040193 -0.003015 0.042994 8.410550 -40.985400 0.000008 0.000006 -11.733500 11.990100 -60.753600 -11.754300 -0.000006 -0.000006 -0.010139 0.272344 -5.508500
0.000000 0.000000 0.000000 0.000000 0.000000 -0.000000 2.335170 93.382000 -1.636550 86.849600 -1.458920 2.139440 15.735700 0.000005 -0.000001 105.253000 84.906600 -105.225000 8.984550 -0.406207 -0.000000 2.063390 2.676800 0.007765 16.377300 -0.000001 -0.000001 3.622270 0.923087 -0.368552 6.456720 -0.000001 -0.000000 -14.512000 -1.517160 -0.479854 12.994200 -0.242716 4.980390 -92.940300 8.560650 -70.962900 5.348090 -0.000007 -0.000001 -66.853600 26.817800 -8.064530 24.328600 0.000019 0.000005 7.843120 22.312700 -19.941600 22.291600 -0.000001 0.000005 -2.665210 5.047340 6.295720 12.994500 -0.242716 -4.980390 88.164200 5.461730 -71.389100 -5.348130 -0.000001 -0.000004 -69.044900 33.630300 -10.285500 -24.328900 0.000322 -0.000009 -0.149364 -0.514565 -16.079800 -22.291500 -0.000108 -0.000004 1.722030 5.275360 0.752875 -2.192480 -6.469440 -0.000000 -174.520000 -9.838480 -1.474190 39.081100 -0.000007 -0.000012 0.044094 -0.142752 17.165300 40.985400 -0.000006 -0.000013 1.621790 12.260000 -68.451300 11.754300 -0.000000 0.000003 -0.001090 0.184302 -9.100520 -2.192510 6.469440 -0.000001 175.607000 10.125500 -177.568000 -39.081100 -0.002282 -0.040193 -0.001585 0.034018 8.241460 -40.985400 0.000008 0.000006 -11.919300 12.016900 -60.090400 -11.754300 -0.000006 -0.000006 -0.009399 0.266758 -5.736930
0.000000 0.000000 0.000000 0.000000 0.000000 -0.000000 2.350210 93.482600 -1.777450 86.616800 -1.564540 1.504180 15.735700 0.000005 -0.000001 105.588000 85.077700 -105.233000 8.984550 -0.406207 -0.000000 1.710360 2.625100 0.670619 16.377300 -0.000001 -0.000001 2.991810 1.041180 0.055721 6.456720 -0.000001 -0.000000 -14.834400 -1.306350 0.043150 12.994200 -0.242716 4.980390 -92.844800 8.287190 -70.977700 5.348090 -0.000007 -0.000001 -68.132900 26.662600 -7.288310 24.328600 0.000019 0.000005 8.287420 22.300500 -20.999300 22.291600 -0.000001 0.000005 -3.997830 5.069620 5.792200 12.994500 -0.242716 -4.980390 88.265300 5.161820 -71.395500 -5.348130 -0.000001 -0.000004 -68.979400 33.084500 -10.385700 -24.328900 0.000322 -0.000009 -0.090197 -0.302973 -16.396400 -22.291500 -0.000108 -0.000004 1.715300 5.275140 0.758849 -2.192480 -6.469440 -0.000000 -174.394000 -9.961610 -1.912470 39.081100 -0.000007 -0.000012 0.040899 -0.137036 16.618100 40.985400 -0.000006 -0.000013 1.550490 12.303100 -68.260700 11.754300 -0.000000 0.000003 -0.001064 0.183938 -9.115300 -2.192510 6.469440 -0.000001 175.986000 10.176900 -178.289000 -39.081100 -0.002282 -0.040193 0.000181 0.022451 8.013830 -40.985400 0.000008 0.000006 -12.015400 11.984900 -59.349400 -11.754300 -0.000006 -0.000006 -0.008614 0.260641 -5.986940
0.000000 0.000000 0.000000 0.000000 0.000000 -0.000000 2.376360 93.577100 -1.893240 86.436700 -1.732470 0.878488 15.735700 0.000005 -0.000001 105.747000 85.264400 -105.011000 8.984550 -0.406207 -0.000000 1.335450 2.527890 1.442960 16.377300 -0.000001 -0.000001 2.136390 1.295410 0.499630 6.456720 -0.000001 -0.000000 -15.067800 -0.995363 0.874521 12.994200 -0.242716 4.980390 -92.860700 8.262220 -70.826300 5.348090 -0.000007 -0.000001 -68.205000 26.883200 -7.022860 24.328600 0.000019 0.000005 9.289120 23.728400 -22.120100 22.291600 -0.000001 0.000005 -8.074200 5.178300 3.173240 12.994500 -0.242716 -4.980390 88.307500 5.002890 -71.281500 -5.348130 -0.000001 -0.000004 -68.811200 32.102600 -10.355800 -24.328900 0.000322 -0.000009 -0.042391 -0.136563 -16.847900 -22.291500 -0.000108 -0.000004 1.753560 5.280900 0.601823 -2.192480 -6.469440 -0.000000 -174.327000 -10.245700 -2.278770 39.081100 -0.000007 -0.000012 0.038127 -0.132676 16.033200 40.985400 -0.000006 -0.000013 1.500600 12.387500 -68.133200 11.754300 -0.000000 0.000003 -0.001130 0.184866 -9.077570 -2.192510 6.469440 -0.000001 176.304000 10.136200 -178.961000 -39.081100 -0.002282 -0.040193 0.001859 0.010884 7.762340 -40.985400 0.000008 0.000006 -12.090100 11.925400 -58.726000 -11.754300 -0.000006 -0.000006 -0.008252 0.257746 -6.105230
0.000000 0.000000 0.000000 0.000000 0.000000 -0.000000 2.384580 93.652900 -1.986830 86.329700 -1.922010 0.330672 15.735700 0.000005 -0.000001 106.294000 85.445500 -105.151000 8.984550 -0.406207 -0.000000 0.954644 2.486750 2.263390 16.377300 -0.000001 -0.000001 1.379320 1.534770 1.064250 6.456720 -0.000001 -0.000000 -15.434600 -0.716548 1.915940 12.994200 -0.242716 4.980390 -92.944300 8.377670 -70.556200 5.348090 -0.000007 -0.000001 -66.965700 25.385300 -8.209680 24.328600 0.000019 0.000005 10.259200 27.995900 -21.086800 22.291600 -0.000001 0.000005 -14.545300 5.389550 -2.716310 12.994500 -0.242716 -4.980390 88.338300 4.883580 -71.182900 -5.348130 -0.000001 -0.000004 -68.989500 29.975400 -9.916100 -24.328900 0.000322 -0.000009 -0.051935 -0.165182 -17.125700 -22.291500 -0.000108 -0.000004 1.851760 5.289840 0.355770 -2.192480 -6.469440 -0.000000 -174.305000 -10.634000 -2.580190 39.081100 -0.000007 -0.000012 0.035891 -0.129363 15.506600 40.985400 -0.000006 -0.000013 1.461600 12.561600 -68.030300 11.754300 -0.000000 0.000003 -0.001145 0.185079 -9.068930 -2.192510 6.469440 -0.000001 176.558000 9.855560 -179.543000 -39.081100 -0.002282 -0.040193 0.003308 0.000266 7.513940 -40.985400 0.000008 0.000006 -12.088100 11.710200 -58.294600 -11.754300 -0.000006 -0.000006 -0.007994 0.255655 -6.190620
0.000000 0.000000 0.000000 0.000000 0.000000 -0.000000 2.356480 93.684300 -2.039500 86.371400 -1.990210 -0.021979 15.735700 0.000005 -0.000001 106.107000 85.615400 -104.553000 8.984550 -0.406207 -0.000000 0.630017 2.335260 3.094050 16.377300 -0.000001 -0.000001 0.660712 1.692770 1.720300 6.456720 -0.000001 -0.000000 -15.636900 -0.334524 3.078880 12.994200 -0.242716 4.980390 -92.956500 8.347210 -70.416600 5.348090 -0.000007 -0.000001 -64.700900 21.907400 -10.199500 24.328600 0.000019 0.000005 8.377160 28.610100 -17.094000 22.291600 -0.000001 0.000005 -21.423000 5.451440 -4.660830 12.994500 -0.242716 -4.980390 88.386400 4.730730 -71.141700 -5.348130 -0.000001 -0.000004 -69.152500 27.689600 -9.597300 -24.328900 0.000322 -0.000009 -0.188879 -0.631867 -16.560400 -22.291500 -0.000108 -0.000004 2.243490 5.298780 0.106095 -2.192480 -6.469440 -0.000000 -174.390000 -10.767300 -2.803120 39.081100 -0.000007 -0.000012 0.034687 -0.127676 15.199300 40.985400 -0.000006 -0.000013 1.406690 12.606100 -67.953400 11.754300 -0.000000 0.000003 -0.001138 0.184981 -9.072900 -2.192510 6.469440 -0.000001 176.641000 9.669150 -179.805000 -39.081100 -0.002282 -0.040193 0.004173 -0.006548 7.220080 -40.985400 0.000008 0.000006 -11.996600 11.426200 -58.250200 -11.754300 -0.000006 -0.000006 -0.008552 0.260147 -6.007120
0.000000 0.000000 0.000000 0.000000 0.000000 -0.000000 2.321960 93.669900 -2.056040 86.593000 -2.170360 -0.303365 15.735700 0.000005 -0.000001 105.469000 85.780000 -103.492000 8.984550 -0.406207 -0.000000 0.335397 2.122310 3.944750 16.377300 -0.000001 -0.000001 -0.036389 1.851860 2.394960 6.456720 -0.000001 -0.000000 -15.725600 0.063415 4.184240 12.994200 -0.242716 4.980390 -92.867000 8.075460 -70.378700 5.348090 -0.000007 -0.000001 -62.263200 14.341600 -11.903000 24.328600 0.000019 0.000005 6.294300 29.592100 -12.592600 22.291600 -0.000001 0.000005 -25.055100 5.386480 -2.502240 12.994500 -0.242716 -4.980390 88.436900 4.572770 -71.105600 -5.348130 -0.000001 -0.000004 -68.910400 25.944800 -9.676890 -24.328900 0.000322 -0.000009 -0.147184 -0.529236 -15.426000 -22.291500 -0.000108 -0.000004 2.904990 5.294220 0.233609 -2.192480 -6.469440 -0.000000 -174.640000 -11.015200 -3.013760 39.081100 -0.000007 -0.000012 0.034272 -0.127138 15.086700 40.985400 -0.000006 -0.000013 1.382120 12.660500 -67.925200 11.754300 -0.000000 0.000003 -0.001076 0.184113 -9.108210 -2.192510 6.469440 -0.000001 176.494000 9.397500 -179.936000 -39.081100 -0.002282 -0.040193 0.005354 -0.016571 6.914210 -40.985400 0.000008 0.000006 -12.117000 11.321600 -58.435800 -11.754300 -0.000006 -0.000006 -0.008944 0.263238 -5.880790
0.000000 0.000000 0.000000 0.000000 0.000000 -0.000000 2.297220 93.627200 -1.976820 86.856900 -2.627970 -0.529447 15.735700 0.000005 -0.000001 104.665000 85.923100 -102.221000 8.984550 -0.406207 -0.000000 0.086775 1.900090 4.884770 16.377300 -0.000001 -0.000001 -0.643580 2.172290 2.992680 6.456720 -0.000001 -0.000000 -16.058800 0.520263 5.506640 12.994200 -0.242716 4.980390 -92.749300 7.619100 -70.090400 5.348090 -0.000007 -0.000001 -58.834000 5.412650 -13.280700 24.328600 0.000019 0.000005 4.628420 31.667000 -8.766890 22.291600 -0.000001 0.000005 -23.147300 5.359810 -1.678270 12.994500 -0.242716 -4.980390 88.450000 4.522860 -71.060700 -5.348130 -0.000001 -0.000004 -68.266000 24.271500 -9.883090 -24.328900 0.000322 -0.000009 -0.005767 -0.018478 -14.122100 -22.291500 -0.000108 -0.000004 3.212600 5.290130 0.347515 -2.192480 -6.469440 -0.000000 -174.903000 -11.545100 -3.139260 39.081100 -0.000007 -0.000012 0.033591 -0.124396 15.111300 40.985400 -0.000006 -0.000013 1.382840 12.755400 -68.000000 11.754300 -0.000000 0.000003 -0.001161 0.185299 -9.059970 -2.192510 6.469440 -0.000001 176.276000 8.817830 -179.933000 -39.081100 -0.002282 -0.040193 0.006014 -0.023347 6.523390 -40.985400 0.000008 0.000006 -12.061800 11.238100 -58.783300 -11.754300 -0.000006 -0.000006 -0.009531 0.267766 -5.695720
